# xmcd
#
# Track frame offsets: 
#        182
#        11327
#        28872
#        53542
#        77835
#        98577
#        117005
#        133567
#        155557
#        173065
#        181550
#        203522
#        226032
#        238907
#        249955
#        268662
#        278670
#
# Disc length: 3929 seconds
#
# Revision: 1
# Processed by: cddbd v1.5.1PL0 Copyright (c) Steve Scherf et al.
# Submitted via: ExactAudioCopy v0.95a5
#
DISCID=c60f5711
DTITLE=Lost Dogs - Scenic Routes
DYEAR=1992
DGENRE=Country-Rock
TTITLE0=Scenic Routes
TTITLE1=You Gotta Move
TTITLE2=Built For Glory, Made to Last
TTITLE3=Bullet Train
TTITLE4=The Fortunate Sons
TTITLE5=The New Physics
TTITLE6=I am A Pilgrim
TTITLE7=Lord, Protect My Child
TTITLE8=Amber Waves Goodbye
TTITLE9=Bush League
TTITLE10=Old and Lonesome
TTITLE11=I Can't Say Goodbye
TTITLE12=Why Is The Devil Red?
TTITLE13=Smokescreen
TTITLE14=The Last Testament of Angus Shane
TTITLE15=Hard Times Come Again No More
TTITLE16=Breathe Deep
EXTD=
EXTT0=
EXTT1=
EXTT2=
EXTT3=
EXTT4=
EXTT5=
EXTT6=
EXTT7=
EXTT8=
EXTT9=
EXTT10=
EXTT11=
EXTT12=
EXTT13=
EXTT14=
EXTT15=
EXTT16=
PLAYORDER=
